<svg xmlns="http://www.w3.org/2000/svg" xmlns:xlink="http://www.w3.org/1999/xlink">
	<symbol id="burger" viewBox="0 0 18 14">
		<path d="M0 1H18M0 7H18M0 13H18" stroke="#090954"/>		
	</symbol>
	<symbol id="close" viewBox="0 0 16 16">
		<path d="M0.635986 0.63623L13.3639 13.3642M13.3639 0.63623L0.635993 13.3642" stroke="#090954"/>
	</symbol>
	<symbol id="cart" viewBox="0 0 21 20">
		<path d="M6.5 9.5V4.5C6.5 3.43913 6.92142 2.42172 7.67157 1.67157C8.42171 0.921424 9.43913 0.5 10.5 0.5C11.5609 0.5 12.5783 0.921424 13.3284 1.67157C14.0786 2.42172 14.5 3.43913 14.5 4.5V9.5M20 6.5H1L4 19.5H17L20 6.5Z" stroke="#090954" stroke-miterlimit="10"/>
	</symbol>
	<symbol id="profile" viewBox="0 0 13 16">
		<path d="M9.49501 4.35335C9.49501 6.30214 7.95639 7.861 6.08393 7.861C4.21147 7.861 2.67285 6.30214 2.67285 4.35335C2.67285 2.40456 4.21147 0.845703 6.08393 0.845703C7.95639 0.845703 9.49501 2.40456 9.49501 4.35335Z" fill="#FEFCFB" stroke="#090954"/>
		<path d="M11.2987 14.9856H0.869129C0.666711 14.9856 0.5 14.8091 0.5 14.595C0.5 11.9206 2.63422 9.75146 5.21477 9.75146H6.95303C9.53359 9.75146 11.6678 11.9206 11.6678 14.595C11.6678 14.6593 11.6317 14.7624 11.5384 14.8581C11.4443 14.9545 11.349 14.9856 11.2987 14.9856Z" fill="#FEFCFB" stroke="#090954"/>
	</symbol>
	<symbol id="wishlist" viewBox="0 0 13 12">
		<path d="M6.71429 11L5.88571 10.2807C2.94286 7.7357 1 6.05722 1 3.99728C1 2.3188 2.38286 1 4.14286 1C5.13714 1 6.09143 1.44142 6.71429 2.13896C7.33714 1.44142 8.29143 1 9.28571 1C11.0457 1 12.4286 2.3188 12.4286 3.99728C12.4286 6.05722 10.4857 7.7357 7.54286 10.2861L6.71429 11Z" stroke="#090954"/>
	</symbol>
	<symbol id="search" viewBox="0 0 14 14">
		<path d="M9.27474 9.27474L13 13" stroke="#090954" stroke-linecap="round"/>
		<path fill-rule="evenodd" clip-rule="evenodd" d="M5.5 10C7.98528 10 10 7.98528 10 5.5C10 3.01472 7.98528 1 5.5 1C3.01472 1 1 3.01472 1 5.5C1 7.98528 3.01472 10 5.5 10Z" stroke="#090954"/>
	</symbol>
	<symbol id="addcurator" viewBox="0 0 27 22">
		<path fill-rule="evenodd" clip-rule="evenodd" d="M24 0.5C24.2761 0.5 24.5 0.723858 24.5 1V2.5H26C26.2761 2.5 26.5 2.72386 26.5 3C26.5 3.27614 26.2761 3.5 26 3.5H24.5V5C24.5 5.27614 24.2761 5.5 24 5.5C23.7239 5.5 23.5 5.27614 23.5 5V3.5H22C21.7239 3.5 21.5 3.27614 21.5 3C21.5 2.72386 21.7239 2.5 22 2.5H23.5V1C23.5 0.723858 23.7239 0.5 24 0.5ZM2.29391 9.40997C1.74895 9.94682 1.5 10.4838 1.5 11C1.5 11.5162 1.74895 12.0532 2.29391 12.59C2.84063 13.1286 3.6574 13.6367 4.70703 14.074C5.22416 14.2895 5.79205 14.4854 6.40316 14.6583L6.46722 14.4201C6.53894 14.1535 6.81326 13.9954 7.07993 14.0672C7.34659 14.1389 7.50462 14.4132 7.4329 14.6799L7.37241 14.9048C8.89868 15.2517 10.6399 15.4634 12.5 15.4957V15.25C12.5 14.9739 12.7239 14.75 13 14.75C13.2761 14.75 13.5 14.9739 13.5 15.25V15.4957C15.3602 15.4634 17.1014 15.2517 18.6277 14.9047L18.5672 14.6799C18.4955 14.4132 18.6535 14.1389 18.9202 14.0672C19.1868 13.9954 19.4612 14.1535 19.5329 14.4201L19.5969 14.6583C20.208 14.4854 20.7759 14.2895 21.293 14.074C22.3426 13.6367 23.1594 13.1286 23.7061 12.59C24.251 12.0532 24.5 11.5162 24.5 11C24.5 10.4838 24.251 9.94682 23.7061 9.40997C23.1594 8.87139 22.3426 8.36335 21.293 7.926C19.1959 7.05223 16.2642 6.5 13 6.5C9.73581 6.5 6.80409 7.05223 4.70703 7.926C3.6574 8.36335 2.84063 8.87139 2.29391 9.40997ZM19.8567 15.624C20.5091 15.4399 21.1188 15.2299 21.6776 14.9971C22.7995 14.5296 23.7401 13.9602 24.4079 13.3024C25.0774 12.6429 25.5 11.8645 25.5 11C25.5 10.1355 25.0774 9.35712 24.4079 8.69758C23.7401 8.03978 22.7995 7.47041 21.6776 7.00293C19.4315 6.06706 16.3632 5.5 13 5.5C9.63678 5.5 6.56849 6.06706 4.32241 7.00293C3.20046 7.47041 2.25987 8.03978 1.59213 8.69758C0.922623 9.35712 0.5 10.1355 0.5 11C0.5 11.8645 0.922623 12.6429 1.59213 13.3024C2.25987 13.9602 3.20046 14.5296 4.32241 14.9971C4.88122 15.2299 5.49093 15.4399 6.14341 15.624L6.07722 15.8701C6.0055 16.1368 6.16353 16.4111 6.43019 16.4828C6.69686 16.5546 6.97118 16.3965 7.0429 16.1299L7.11248 15.8712C8.7303 16.242 10.5608 16.4632 12.5 16.4958V16.75C12.5 17.0261 12.7239 17.25 13 17.25C13.2761 17.25 13.5 17.0261 13.5 16.75V16.4958C15.4393 16.4632 17.2698 16.242 18.8876 15.8711L18.9572 16.1299C19.0289 16.3965 19.3033 16.5546 19.5699 16.4828C19.8366 16.4111 19.9946 16.1368 19.9229 15.8701L19.8567 15.624ZM21.44 16.64C20.86 16.32 20.12 16.53 19.8 17.11L19.76 17.19L19.68 17.15C19.1 16.83 18.36 17.04 18.04 17.62C17.72 18.2 17.93 18.94 18.51 19.26L20.7 20.48L21.92 18.29C22.23 17.7 22.02 16.96 21.44 16.64ZM7.70996 18.78C7.70996 19.8846 6.81453 20.78 5.70996 20.78C4.60539 20.78 3.70996 19.8846 3.70996 18.78C3.70996 17.6754 4.60539 16.78 5.70996 16.78C6.81453 16.78 7.70996 17.6754 7.70996 18.78ZM13.0001 21.37L11.6501 21.85L11.6901 20.41L10.8101 19.27L12.1901 18.86L13.0001 17.68L13.8101 18.86L15.1901 19.27L14.3101 20.41L14.3501 21.85L13.0001 21.37Z" fill="#090954"/>
	</symbol>
</svg>