<svg xmlns="http://www.w3.org/2000/svg" xmlns:xlink="http://www.w3.org/1999/xlink">
	<symbol id="visa" viewBox="0 0 45 30">
		<rect width="45" height="30" rx="5" fill="#BFD1E8"/>
		<path d="M8.81549 12.0137L9.91116 19.8633H12.6014L17.6173 10.1435H14.7904L12.6606 14.6515C12.3599 15.2916 12.0979 15.8702 11.8724 16.4009C11.8314 15.8474 11.7859 15.3098 11.7312 14.7608L11.3007 10.1458H7L11.4715 13.6834L8.81549 12.0137Z" fill="#090954"/>
		<path d="M19.549 19.8656L21.3918 10.1458H18.861L17.0159 19.8656H19.549Z" fill="#090954"/>
		<path d="M21.0319 19.2916C21.6241 19.7358 22.6674 20 23.8223 20C26.2164 20 27.8246 18.6469 27.8246 16.6355C27.8246 15.5353 27.1822 14.6629 25.8633 13.9727C25.1253 13.5581 24.6765 13.2802 24.6765 12.9294C24.6765 12.6014 25.0205 12.2483 25.836 12.2483C26.631 12.2483 27.2369 12.5604 27.3531 12.6219L27.6401 12.779L28.4487 10.615L28.2369 10.4966C27.631 10.1617 26.8793 10 25.9385 10C23.6469 10 22.0456 11.3394 22.0456 13.2574C22.0456 14.6469 23.139 15.4191 24.1002 15.9385C25.0023 16.4077 25.18 16.6743 25.18 16.9772C25.18 17.5604 24.5513 17.7677 24.0114 17.7677C23.3075 17.7677 22.574 17.5695 21.9977 17.2232L21.713 17.0547L20.8565 19.164L21.0319 19.2916Z" fill="#090954"/>
		<path d="M30.2665 19.8656L31.3531 17.4897H33.5444L33.7358 19.8656H36.3645L35.2255 10.1458H32.2847L27.5558 19.8656H30.2665ZM32.9089 13.861C33.0091 13.6424 33.1116 13.3918 33.2164 13.1344C33.2346 13.3645 33.2506 13.5809 33.2642 13.7677L33.4123 15.4282H32.1822L32.9089 13.861Z" fill="#090954"/>
	</symbol>
	<symbol id="mastercard" viewBox="0 0 45 30">
		<rect width="45" height="30" rx="5" fill="#BFD1E8"/>
		<path d="M15.1846 23.9007V22.7087C15.1915 22.6085 15.1771 22.5079 15.1423 22.4137C15.1075 22.3195 15.0532 22.2339 14.983 22.1624C14.9128 22.091 14.8282 22.0355 14.7349 21.9995C14.6417 21.9635 14.5419 21.948 14.4422 21.9538C14.3117 21.9452 14.1813 21.972 14.0646 22.0314C13.9479 22.0908 13.8492 22.1807 13.7788 22.2916C13.7146 22.184 13.6228 22.0959 13.513 22.0364C13.4032 21.977 13.2795 21.9485 13.1549 21.9538C13.0463 21.9483 12.9382 21.9714 12.8412 22.0209C12.7443 22.0704 12.6618 22.1445 12.6021 22.2359V22.0015H12.1915V23.9007H12.6061V22.8557C12.5972 22.7908 12.6028 22.7247 12.6223 22.6622C12.6418 22.5996 12.6748 22.5422 12.719 22.494C12.7631 22.4458 12.8173 22.408 12.8776 22.3833C12.938 22.3586 13.003 22.3476 13.0681 22.3512C13.3405 22.3512 13.4787 22.5299 13.4787 22.8518V23.9086H13.8933V22.8557C13.8849 22.7909 13.8907 22.7249 13.9103 22.6625C13.93 22.6002 13.963 22.5429 14.0071 22.4948C14.0511 22.4466 14.1052 22.4088 14.1653 22.384C14.2255 22.3592 14.2904 22.348 14.3553 22.3512C14.6357 22.3512 14.7699 22.5299 14.7699 22.8518V23.9086L15.1846 23.9007ZM21.3188 22.0015H20.6436V21.4254H20.229V22.0015H19.8539V22.379H20.2369V23.2531C20.2369 23.6941 20.4067 23.9563 20.8924 23.9563C21.0738 23.9569 21.2518 23.906 21.4057 23.8093L21.2872 23.4557C21.1771 23.5218 21.0521 23.5587 20.924 23.563C20.7265 23.563 20.6515 23.4358 20.6515 23.2451V22.379H21.3228L21.3188 22.0015ZM24.8213 21.9538C24.7212 21.9509 24.6221 21.9752 24.5345 22.0241C24.447 22.0731 24.3742 22.1449 24.3238 22.232V22.0015H23.9171V23.9007H24.3277V22.8359C24.3277 22.522 24.462 22.3472 24.7226 22.3472C24.8104 22.346 24.8976 22.3622 24.9792 22.3949L25.1056 21.9976C25.0118 21.9638 24.913 21.9463 24.8134 21.9459L24.8213 21.9538ZM19.5261 22.1525C19.2937 22.0134 19.0264 21.9445 18.7561 21.9538C18.2783 21.9538 17.9664 22.1843 17.9664 22.5617C17.9664 22.8716 18.1954 23.0623 18.6179 23.1219L18.8154 23.1498C19.0404 23.1815 19.1471 23.2411 19.1471 23.3484C19.1471 23.4954 18.997 23.5788 18.7166 23.5788C18.4911 23.5854 18.27 23.5154 18.0888 23.3802L17.8914 23.702C18.1306 23.8701 18.4171 23.9564 18.7087 23.9483C19.2537 23.9483 19.5696 23.6901 19.5696 23.3285C19.5696 22.967 19.3208 22.82 18.9101 22.7604L18.7127 22.7326C18.535 22.7087 18.3929 22.673 18.3929 22.5458C18.3929 22.4187 18.5271 22.3233 18.7522 22.3233C18.9602 22.3258 19.1641 22.3819 19.3445 22.4862L19.5261 22.1525ZM30.5252 21.9538C30.425 21.9509 30.326 21.9752 30.2384 22.0241C30.1508 22.0731 30.078 22.1449 30.0276 22.232V22.0015H29.6209V23.9007H30.0316V22.8359C30.0316 22.522 30.1658 22.3472 30.4264 22.3472C30.5143 22.346 30.6015 22.3622 30.6831 22.3949L30.8095 21.9976C30.7157 21.9638 30.6169 21.9463 30.5173 21.9459L30.5252 21.9538ZM25.2339 22.9471C25.2291 23.0806 25.2519 23.2136 25.3011 23.3377C25.3502 23.4617 25.4245 23.5741 25.5193 23.6676C25.6141 23.7611 25.7272 23.8336 25.8515 23.8806C25.9757 23.9276 26.1083 23.948 26.2408 23.9404C26.4874 23.953 26.7297 23.8722 26.92 23.7139L26.7226 23.3802C26.5806 23.4891 26.4075 23.549 26.229 23.551C26.0772 23.5387 25.9356 23.4693 25.8323 23.3566C25.7291 23.244 25.6718 23.0964 25.6718 22.9432C25.6718 22.7899 25.7291 22.6423 25.8323 22.5297C25.9356 22.417 26.0772 22.3476 26.229 22.3353C26.4075 22.3373 26.5806 22.3972 26.7226 22.5061L26.92 22.1724C26.7297 22.0141 26.4874 21.9333 26.2408 21.9459C26.1083 21.9383 25.9757 21.9587 25.8515 22.0057C25.7272 22.0527 25.6141 22.1252 25.5193 22.2187C25.4245 22.3122 25.3502 22.4246 25.3011 22.5486C25.2519 22.6727 25.2291 22.8057 25.2339 22.9392V22.9471ZM29.0799 22.0015H28.6693V22.232C28.5995 22.1417 28.5095 22.0694 28.4065 22.021C28.3035 21.9727 28.1906 21.9496 28.077 21.9538C27.8152 21.9538 27.5641 22.0585 27.379 22.2448C27.1938 22.431 27.0898 22.6837 27.0898 22.9471C27.0898 23.2106 27.1938 23.4632 27.379 23.6495C27.5641 23.8358 27.8152 23.9404 28.077 23.9404C28.1906 23.9446 28.3035 23.9216 28.4065 23.8732C28.5095 23.8249 28.5995 23.7526 28.6693 23.6623V23.8927H29.0799V22.0015ZM27.5518 22.9471C27.5584 22.8353 27.5973 22.7279 27.6637 22.6381C27.7302 22.5483 27.8213 22.4799 27.9258 22.4416C28.0304 22.4032 28.1438 22.3964 28.2522 22.4221C28.3605 22.4477 28.459 22.5047 28.5356 22.586C28.6121 22.6673 28.6634 22.7693 28.683 22.8795C28.7027 22.9897 28.6899 23.1033 28.6462 23.2063C28.6025 23.3093 28.5298 23.3972 28.4371 23.4592C28.3444 23.5211 28.2357 23.5544 28.1244 23.555C28.0462 23.556 27.9687 23.5407 27.8966 23.5101C27.8246 23.4795 27.7597 23.4342 27.7059 23.3771C27.6521 23.32 27.6107 23.2523 27.5842 23.1783C27.5576 23.1043 27.5466 23.0256 27.5518 22.9471ZM22.5962 21.9538C22.3344 21.9575 22.0848 22.0657 21.9022 22.2546C21.7197 22.4435 21.6192 22.6976 21.6229 22.961C21.6265 23.2245 21.7341 23.4756 21.9218 23.6593C22.1095 23.843 22.362 23.9441 22.6239 23.9404C22.9079 23.9551 23.1873 23.863 23.4077 23.6822L23.2102 23.3762C23.0543 23.502 22.8612 23.5719 22.6614 23.5749C22.5256 23.5866 22.3907 23.5446 22.2852 23.4578C22.1798 23.371 22.1122 23.2462 22.0967 23.11H23.4985C23.4985 23.0584 23.4985 23.0067 23.4985 22.9511C23.4985 22.3551 23.1313 21.9578 22.6021 21.9578L22.5962 21.9538ZM22.5962 22.3233C22.6577 22.322 22.7188 22.3329 22.7761 22.3554C22.8333 22.3778 22.8856 22.4114 22.93 22.4542C22.9744 22.497 23.0099 22.5482 23.0346 22.6048C23.0594 22.6614 23.0727 22.7224 23.074 22.7842H22.0868C22.094 22.6567 22.1505 22.5371 22.2442 22.4509C22.3379 22.3648 22.4615 22.319 22.5883 22.3233H22.5962ZM32.8845 21.2387H32.4896V22.232C32.4199 22.1417 32.3298 22.0694 32.2268 22.021C32.1238 21.9727 32.0109 21.9496 31.8973 21.9538C31.6355 21.9538 31.3844 22.0585 31.1993 22.2448C31.0142 22.431 30.9102 22.6837 30.9102 22.9471C30.9102 23.2106 31.0142 23.4632 31.1993 23.6495C31.3844 23.8358 31.6355 23.9404 31.8973 23.9404C32.0109 23.9446 32.1238 23.9216 32.2268 23.8732C32.3298 23.8249 32.4199 23.7526 32.4896 23.6623V23.8927H32.8845V21.2387ZM33.5696 23.6245C33.5953 23.6242 33.6207 23.6289 33.6446 23.6384C33.6673 23.6478 33.688 23.6612 33.7058 23.6782C33.7232 23.6953 33.7372 23.7155 33.7473 23.7378C33.7573 23.761 33.7624 23.786 33.7624 23.8113C33.7624 23.8366 33.7573 23.8616 33.7473 23.8848C33.7372 23.907 33.7232 23.9272 33.7058 23.9444C33.688 23.9613 33.6673 23.9748 33.6446 23.9841C33.621 23.9946 33.5954 24 33.5696 24C33.5322 23.9997 33.4956 23.9887 33.4641 23.9683C33.4327 23.9479 33.4076 23.919 33.3919 23.8848C33.382 23.8616 33.3769 23.8365 33.3769 23.8113C33.3769 23.786 33.382 23.761 33.3919 23.7378C33.402 23.7155 33.416 23.6953 33.4334 23.6782C33.4511 23.6612 33.4719 23.6478 33.4946 23.6384C33.5203 23.6282 33.5479 23.6234 33.5755 23.6245H33.5696ZM33.5696 23.9603C33.5893 23.9604 33.6088 23.9563 33.6269 23.9483C33.6438 23.9407 33.6592 23.9299 33.6723 23.9166C33.697 23.8895 33.7107 23.854 33.7107 23.8172C33.7107 23.7805 33.697 23.745 33.6723 23.7179C33.6593 23.7045 33.6439 23.6937 33.6269 23.6861C33.6088 23.6782 33.5893 23.6741 33.5696 23.6742C33.5499 23.6743 33.5304 23.6784 33.5123 23.6861C33.4946 23.6934 33.4785 23.7042 33.465 23.7179C33.4403 23.745 33.4266 23.7805 33.4266 23.8172C33.4266 23.854 33.4403 23.8895 33.465 23.9166C33.4785 23.9302 33.4946 23.941 33.5123 23.9483C33.5323 23.957 33.5538 23.9611 33.5755 23.9603H33.5696ZM33.5814 23.7239C33.5999 23.723 33.618 23.7286 33.6328 23.7398C33.6388 23.7448 33.6436 23.7512 33.6467 23.7585C33.6498 23.7657 33.6511 23.7736 33.6505 23.7815C33.6508 23.7881 33.6497 23.7947 33.6474 23.8008C33.645 23.807 33.6414 23.8126 33.6367 23.8172C33.6253 23.8277 33.6107 23.834 33.5953 23.8351L33.6525 23.9007H33.6071L33.5538 23.8351H33.536V23.9007H33.4985V23.7259L33.5814 23.7239ZM33.538 23.7576V23.8053H33.5814C33.5892 23.8076 33.5974 23.8076 33.6051 23.8053C33.6065 23.8025 33.6072 23.7995 33.6072 23.7964C33.6072 23.7933 33.6065 23.7902 33.6051 23.7874C33.6065 23.7847 33.6072 23.7816 33.6072 23.7785C33.6072 23.7754 33.6065 23.7723 33.6051 23.7696C33.5974 23.7672 33.5892 23.7672 33.5814 23.7696L33.538 23.7576ZM31.3662 22.9511C31.3728 22.8393 31.4117 22.7319 31.4781 22.6421C31.5446 22.5522 31.6357 22.4839 31.7403 22.4455C31.8448 22.4072 31.9582 22.4004 32.0666 22.426C32.1749 22.4517 32.2734 22.5087 32.35 22.59C32.4265 22.6712 32.4778 22.7733 32.4974 22.8835C32.5171 22.9937 32.5043 23.1073 32.4606 23.2103C32.4169 23.3133 32.3442 23.4012 32.2515 23.4631C32.1588 23.5251 32.0501 23.5584 31.9388 23.559C31.8606 23.56 31.7831 23.5447 31.7111 23.5141C31.6391 23.4835 31.5741 23.4382 31.5203 23.3811C31.4666 23.324 31.4251 23.2563 31.3986 23.1823C31.3721 23.1083 31.361 23.0296 31.3662 22.9511ZM17.5005 22.0015H17.0898V22.232C17.0201 22.1417 16.93 22.0694 16.827 22.021C16.724 21.9727 16.6111 21.9496 16.4975 21.9538C16.2357 21.9538 15.9846 22.0585 15.7995 22.2448C15.6143 22.431 15.5103 22.6837 15.5103 22.9471C15.5103 23.2106 15.6143 23.4632 15.7995 23.6495C15.9846 23.8358 16.2357 23.9404 16.4975 23.9404C16.6111 23.9446 16.724 23.9216 16.827 23.8732C16.93 23.8249 17.0201 23.7526 17.0898 23.6623V23.8927H17.5005V22.0015ZM15.9723 22.9511C15.9789 22.8393 16.0178 22.7319 16.0842 22.6421C16.1507 22.5522 16.2418 22.4839 16.3463 22.4455C16.4509 22.4072 16.5643 22.4004 16.6727 22.426C16.781 22.4517 16.8795 22.5087 16.9561 22.59C17.0326 22.6712 17.0839 22.7733 17.1035 22.8835C17.1232 22.9937 17.1104 23.1073 17.0667 23.2103C17.023 23.3133 16.9503 23.4012 16.8576 23.4631C16.7649 23.5251 16.6562 23.5584 16.5449 23.559C16.4664 23.5605 16.3884 23.5457 16.3159 23.5153C16.2434 23.4849 16.178 23.4397 16.1238 23.3826C16.0696 23.3254 16.0278 23.2575 16.001 23.1833C15.9743 23.109 15.9632 23.0299 15.9684 22.9511H15.9723Z" fill="#090954"/>
		<path d="M19.7848 13.1534C19.7836 12.0702 20.0274 11.0009 20.4978 10.0266C20.9681 9.05219 21.6526 8.19828 22.4995 7.52948C21.4509 6.70034 20.1917 6.18474 18.8657 6.04162C17.5397 5.89851 16.2004 6.13364 15.001 6.72015C13.8015 7.30665 12.7902 8.22088 12.0827 9.35833C11.3752 10.4958 11 11.8106 11 13.1524C11 14.4943 11.3752 15.8091 12.0827 16.9465C12.7902 18.084 13.8015 18.9982 15.001 19.5847C16.2004 20.1712 17.5397 20.4063 18.8657 20.2632C20.1917 20.1201 21.4509 19.6045 22.4995 18.7754C21.6529 18.1068 20.9685 17.2532 20.4982 16.2792C20.0279 15.3052 19.7839 14.2363 19.7848 13.1534Z" fill="#090954"/>
		<path d="M34 13.1534C34 14.4954 33.6247 15.8102 32.9171 16.9477C32.2094 18.0852 31.198 18.9994 29.9984 19.5859C28.7987 20.1723 27.4593 20.4073 26.1333 20.2639C24.8072 20.1206 23.5479 19.6048 22.4995 18.7754C23.3457 18.1062 24.0299 17.2524 24.5003 16.2783C24.9708 15.3042 25.2152 14.2354 25.2152 13.1524C25.2152 12.0694 24.9708 11.0006 24.5003 10.0265C24.0299 9.0525 23.3457 8.19867 22.4995 7.52948C23.5479 6.70008 24.8072 6.18423 26.1333 6.04091C27.4593 5.89758 28.7987 6.13256 29.9984 6.71899C31.198 7.30542 32.2094 8.21962 32.9171 9.35711C33.6247 10.4946 34 11.8095 34 13.1514V13.1534Z" fill="#090954"/>
		<path d="M33.3208 17.5834V17.353H33.4136V17.3053H33.1787V17.353H33.2794V17.5834H33.3208ZM33.7769 17.5834V17.3053H33.7058L33.6229 17.504L33.54 17.3053H33.4768V17.5834H33.5281V17.3748L33.6051 17.5556H33.6584L33.7354 17.3748V17.5854L33.7769 17.5834Z" fill="#090954"/>
	</symbol>
	<symbol id="amex" viewBox="0 0 45 30">
		<rect width="45" height="30" rx="5" fill="#BFD1E8"/>
		<path d="M9.60563 11L6 18.9875H10.3192L10.8576 17.7105H12.0845L12.6228 18.9875H17.3803V18.011L17.8059 18.9875H20.2598L20.6854 17.9984V18.9875H30.5759L31.7778 17.748L32.9045 18.9875L37.9875 19L34.3693 15.0188L37.9624 11H32.9671L31.7903 12.2144L30.7011 11H19.9468L19.0203 13.0657L18.0814 11H13.7746V11.939L13.2864 11H9.60563ZM10.4444 12.1393H12.5477L14.939 17.5477V12.1393H17.2426L19.0955 16.0203L20.7981 12.1393H23.0892V17.8732H21.687V13.3787L19.6463 17.8607H18.3944L16.3537 13.3787V17.8732H13.4867L12.9484 16.5837H9.99374L9.4554 17.8607H7.91549L10.4444 12.1393ZM24.3662 12.1393H30.0376L31.7778 14.0172L33.5681 12.1393H35.3083L32.6667 15.0063L35.3083 17.8482H33.493L31.7527 15.9452L29.9499 17.8482H24.3662V12.1393ZM11.471 13.1033L10.507 15.3944H12.4476L11.471 13.1033ZM25.7684 13.3161V14.3678H28.8607V15.5321H25.7684V16.6714H29.2363L30.8513 14.9937L29.3114 13.3161H25.7684Z" fill="#090954"/>
	</symbol>
	<symbol id="gpay" viewBox="0 0 45 30">
		<rect width="45" height="30" rx="5" fill="#BFD1E8"/>
		<path d="M25.3073 10.6907C24.7303 10.1084 23.9583 9.79299 23.1552 9.80916H19.8256V19.9429H21.081V15.8425H23.1552C24.0129 15.8425 24.7303 15.5594 25.3073 14.9771C25.8922 14.4272 26.2275 13.6427 26.2041 12.8258C26.2197 12.009 25.8922 11.2326 25.3073 10.6907ZM24.4262 14.0713C24.0987 14.4191 23.6542 14.6132 23.1864 14.597H21.081V11.0546H23.1864C23.6542 11.0385 24.1065 11.2407 24.4262 11.5965C24.434 11.6046 24.4496 11.6208 24.4574 11.6289C25.1046 12.3163 25.089 13.4081 24.4262 14.0713Z" fill="#090954"/>
		<path d="M31.3037 13.5537C30.7657 13.0361 30.0327 12.7854 29.1048 12.7854C27.9117 12.7854 27.015 13.2383 26.4068 14.1441L27.5141 14.8639C27.9195 14.2492 28.481 13.9419 29.175 13.9419C29.6194 13.9338 30.0561 14.1037 30.3836 14.4191C30.7111 14.7021 30.906 15.1227 30.8982 15.5675V15.8668C30.4148 15.5837 29.7988 15.4462 29.058 15.4462C28.1847 15.4462 27.4829 15.6565 26.9604 16.0851C26.438 16.5138 26.1729 17.0799 26.1729 17.7997C26.1651 18.4548 26.438 19.0775 26.9136 19.4981C27.4127 19.951 28.0287 20.1774 28.7617 20.1774C29.6272 20.1774 30.3134 19.7811 30.8359 18.9886H30.8904V19.951H32.0913V15.6727C32.1069 14.7749 31.8417 14.0713 31.3037 13.5537ZM30.2822 18.4063C29.9079 18.7945 29.4011 19.0128 28.8708 19.0128C28.52 19.0209 28.1769 18.8996 27.8961 18.6731C27.631 18.479 27.4751 18.1636 27.4829 17.8239C27.4829 17.4438 27.6544 17.1284 27.9975 16.8696C28.3406 16.6108 28.7617 16.4895 29.2763 16.4895C29.9781 16.4895 30.5239 16.6512 30.9138 16.9748C30.906 17.5247 30.7033 17.9938 30.2822 18.4063Z" fill="#090954"/>
		<path d="M37.6354 13.0118L35.6938 17.9938H35.6704L33.6742 13.0118H32.3096L35.07 19.5062L33.5105 23H34.8049L39 13.0118H37.6354Z" fill="#090954"/>
		<path d="M10.6163 13.772V16.0123H13.6495C13.5248 16.7321 13.1193 17.3791 12.5267 17.7835C12.0198 18.1393 11.3726 18.3415 10.6163 18.3415C9.1503 18.3415 7.91047 17.3144 7.46601 15.9395C7.23208 15.2197 7.23208 14.4352 7.46601 13.7073C7.91047 12.3324 9.1503 11.3053 10.6163 11.3053C11.4194 11.2891 12.1914 11.6046 12.7684 12.1788L14.3669 10.5208C13.3532 9.52604 12.012 8.98418 10.6163 9.00035C8.4953 9.00035 6.55368 10.2458 5.60237 12.2111C4.79921 13.8529 4.79921 15.7939 5.60237 17.4357C6.55368 19.4091 8.4953 20.6465 10.6163 20.6465C12.129 20.6465 13.4078 20.1289 14.3357 19.2392C15.3962 18.2283 16.0044 16.724 16.0044 14.9528C16.0044 14.5565 15.9732 14.1602 15.9109 13.772H10.6163Z" fill="#090954"/>
	</symbol>
	<symbol id="netbanking" viewBox="0 0 45 30">
		<rect width="45" height="30" rx="5" fill="#BFD1E8"/>
		<path d="M7.3372 15.6073H9.83043L9.78532 13.0907C9.76277 11.391 9.78532 10.6394 9.86389 10.7484C9.93119 10.8465 10.7624 11.9686 11.7173 13.2435L13.4583 15.5529L15.8733 15.6186V7.00073H13.4026V11.7071L12.0883 9.97496C11.3695 9.02719 10.5722 7.97038 10.3252 7.6327L9.86465 7.01167L8.60675 7.00073H7.33758L7.3372 15.6073Z" fill="#090954"/>
		<path d="M17.5575 15.6073H23.2853V13.5374H20.253V12.3391H22.9485V10.2689H20.2417L20.3094 9.01588L23.1733 8.95024V7H17.5575V15.6073Z" fill="#090954"/>
		<path d="M23.9598 8.95061L26.3748 9.01625L26.4086 12.3067L26.4312 15.6076H29.1259V8.96192H31.5966V7.00074H23.9598V8.95061Z" fill="#090954"/>
		<path d="M21.6011 23.2336H23.2748L23.3425 21.3595L23.7357 22.2639L24.1398 23.1789L26.0045 23.2445L25.4316 22.2096L24.8699 21.1746L25.3643 20.3465C25.6451 19.8888 25.8695 19.4968 25.8695 19.464C25.8695 19.4312 25.4654 19.4202 24.9598 19.4421L24.05 19.4749L23.7019 20.2921L23.3425 21.1094L23.3086 19.3334L23.2861 17.5684H21.6011V23.2336Z" fill="#090954"/>
		<path d="M26.4304 17.8952C26.1383 18.1785 26.1496 18.4509 26.4417 18.8105C26.6214 19.0391 26.7677 19.0938 27.1492 19.0938C27.4748 19.0938 27.6883 19.0286 27.812 18.8976C28.059 18.6252 28.0481 18.0804 27.8008 17.8627C27.4974 17.6009 26.7113 17.6228 26.4304 17.8952Z" fill="#090954"/>
		<path d="M7 23.2554L8.71842 23.2117C10.1786 23.1789 10.482 23.1464 10.8075 22.9611C11.3692 22.6344 11.6387 22.2311 11.65 21.6648C11.6613 21.1199 11.3579 20.6951 10.7741 20.4555C10.4594 20.3246 10.4594 20.314 10.6842 20.2488C11.0774 20.1288 11.4929 19.5515 11.4929 19.1482C11.4929 18.669 11.0662 18.1895 10.5045 18.0261C10.2575 17.9499 9.3812 17.8952 8.52782 17.8952H7V23.2554ZM9.5609 19.1154C9.76316 19.3116 9.71804 19.7255 9.48233 19.856C9.35865 19.9103 9.11165 19.965 8.92068 19.965C8.58383 19.965 8.57256 19.9541 8.57256 19.4749V18.9848H8.99925C9.23496 18.9848 9.48233 19.0392 9.5609 19.1154ZM9.71804 21.2399C10.1673 21.6319 9.80789 22.1443 9.05526 22.1443H8.57218V21.0547H9.04398C9.31391 21.0547 9.59474 21.1309 9.71804 21.2399Z" fill="#090954"/>
		<path d="M12.9526 19.453C12.4474 19.584 12.4474 19.584 12.4135 20.096C12.391 20.3902 12.391 20.6189 12.4135 20.6189C12.4361 20.6189 12.6493 20.5427 12.8966 20.4555C13.447 20.2703 14.0985 20.2488 14.2782 20.4227C14.503 20.6404 14.4353 20.717 13.885 20.7823C12.6045 20.9456 12.0541 21.349 12.0541 22.1334C12.0541 23.1792 13.0876 23.6803 14.0083 23.0702C14.3902 22.8197 14.4128 22.8197 14.4128 23.0159C14.4128 23.212 14.4914 23.2339 15.2102 23.2339H16.0075L15.9624 21.7851C15.9173 20.2163 15.8278 19.9439 15.2549 19.5734C14.8846 19.344 13.6154 19.2682 12.9526 19.453ZM14.4128 21.7519C14.4128 22.0787 14.1658 22.2858 13.8286 22.2311C13.4579 22.1877 13.4132 21.741 13.7613 21.6101C14.2218 21.4252 14.4128 21.4686 14.4128 21.7519Z" fill="#090954"/>
		<path d="M18.9504 19.464C18.7481 19.5511 18.5349 19.7036 18.4673 19.8235C18.3661 19.9979 18.3549 19.9869 18.3436 19.7145V19.4202H16.6586V23.2332H18.3327L18.3665 21.9692C18.4004 20.8906 18.4338 20.6729 18.6022 20.5748C18.7372 20.4876 18.8492 20.4876 18.9955 20.5748C19.1526 20.6729 19.1864 20.8906 19.2203 21.9692L19.2541 23.2332H20.9496L20.9045 21.7297C20.8707 20.76 20.8034 20.128 20.7022 19.9322C20.4105 19.3659 19.6692 19.1701 18.9504 19.464Z" fill="#090954"/>
		<path d="M31.1477 19.3878C31.0579 19.4206 30.8443 19.573 30.6759 19.7255L30.3616 20.0088V19.7145C30.3616 19.4202 30.3504 19.4202 29.5755 19.4202H28.7895V23.2332H30.3616V22.0564C30.3616 20.7491 30.474 20.4657 30.9346 20.531C31.2041 20.5638 31.2041 20.5748 31.238 21.8927L31.2718 23.2328H32.9455V21.784C32.9455 20.1933 32.7996 19.7032 32.2714 19.4523C31.9789 19.3116 31.4511 19.2787 31.1477 19.3878Z" fill="#090954"/>
		<path d="M34.4947 19.5402C33.4278 20.085 33.1921 22.0458 34.0793 22.9064C34.6184 23.4294 35.562 23.4731 36.0673 23.0045L36.3143 22.7865V23.0698C36.3143 23.2222 36.1906 23.4728 36.0222 23.6365C35.7639 23.887 35.6741 23.9089 35.0451 23.8652C34.6632 23.8323 34.259 23.778 34.1579 23.7237C33.9782 23.6584 33.9556 23.7127 33.9556 24.2466C33.9556 24.9657 34.0342 25.0091 35.191 24.9985C36.2019 24.9985 36.8421 24.7914 37.3361 24.3122C37.8865 23.7784 37.9989 23.2554 37.9989 21.1746V19.4206H37.1564C36.4602 19.4206 36.3139 19.4534 36.3139 19.5949C36.3139 19.7364 36.2579 19.7254 36.0218 19.5406C35.6402 19.2572 35.0451 19.2572 34.4947 19.5402ZM36.1793 20.6408C36.3478 20.8041 36.359 21.6432 36.2019 21.9372C36.0782 22.1552 35.6966 22.2096 35.4384 22.0462C35.1914 21.8938 35.135 21.0984 35.3485 20.7823C35.5504 20.488 35.9549 20.4227 36.1793 20.6408Z" fill="#090954"/>
		<path d="M26.318 23.2335H28.003V19.4206H26.318V23.2335Z" fill="#090954"/>
	</symbol>
	<symbol id="cod" viewBox="0 0 45 30">
		<rect width="45" height="30" rx="5" fill="#BFD1E8"/>
		<path d="M13.1736 19.4867C13.0744 19.4867 12.9752 19.4867 12.9752 19.5885C12.9752 19.6903 12.876 19.6903 12.876 19.792C12.7769 19.9956 12.6777 20.1991 12.5785 20.3009C12.4793 20.4027 12.281 20.5044 12.0826 20.5044C11.8843 20.5044 11.686 20.5044 11.5868 20.4027C11.4876 20.3009 11.2893 20.1991 11.2893 19.9956C11.0909 19.792 10.9917 19.4867 10.9917 19.1814C10.9917 18.7743 11.0909 18.3673 11.2893 18.1637C11.4876 17.9602 11.686 17.7566 11.9835 17.7566C12.1818 17.7566 12.3802 17.7566 12.4793 17.8584C12.5785 17.9602 12.7769 18.0619 12.7769 18.2655C12.876 18.5708 12.9752 18.5708 12.9752 18.6726C12.9752 18.7743 13.0744 18.7743 13.1736 18.7743C13.2727 18.7743 13.3719 18.7743 13.3719 18.6726C13.4711 18.5708 13.4711 18.5708 13.4711 18.469C13.4711 18.2655 13.3719 18.1637 13.2727 17.9602C13.1736 17.7566 12.9752 17.6549 12.7769 17.5531C12.5785 17.3496 12.281 17.2478 11.9835 17.2478C11.7851 17.2478 11.4876 17.2478 11.2893 17.3496C11.0909 17.4513 10.8926 17.5531 10.6942 17.7566C10.4959 17.9602 10.3967 18.1637 10.2975 18.3673C10.1983 18.5708 10.1983 18.8761 10.1983 19.1814C10.1983 19.385 10.1983 19.5885 10.2975 19.6903C10.2975 19.8938 10.3967 19.9956 10.4959 20.1991C10.595 20.3009 10.6942 20.5044 10.7934 20.6062C10.8926 20.708 10.9917 20.8097 11.1901 20.9115C11.3884 21.0133 11.4876 21.0133 11.5868 21.115C11.7851 21.115 11.8843 21.2168 12.0826 21.2168C12.3802 21.2168 12.5785 21.2168 12.7769 21.115C12.9752 21.0133 13.1736 20.9115 13.2727 20.8097C13.3719 20.708 13.4711 20.5044 13.5702 20.4027C13.6694 20.3009 13.6694 20.0973 13.6694 19.9956C13.6694 19.8938 13.6694 19.792 13.5702 19.792C13.3719 19.5885 13.2727 19.4867 13.1736 19.4867Z" fill="#090954"/>
		<path d="M17.3388 20.8097C17.3388 20.708 17.3388 20.6062 17.2397 20.4027L16.2479 17.9602C16.2479 17.8584 16.1488 17.7566 16.1488 17.6549C16.1488 17.5531 16.0496 17.5531 16.0496 17.4513C16.0496 17.3496 15.9504 17.3496 15.8512 17.2478C15.8512 17.2478 15.7521 17.2478 15.6529 17.2478C15.5537 17.2478 15.4545 17.2478 15.3554 17.3496C15.2562 17.3496 15.2562 17.4513 15.157 17.5531C15.157 17.6549 15.0579 17.6549 15.0579 17.7566C15.0579 17.8584 14.9587 17.9602 14.9587 18.0619L14.0661 20.5044C13.9669 20.5044 13.9669 20.6062 13.9669 20.6062C13.9669 20.708 13.9669 20.708 13.9669 20.8097C13.9669 20.9115 13.9669 21.0133 14.0661 21.0133C14.1653 21.115 14.2645 21.115 14.3636 21.115C14.4628 21.115 14.562 21.115 14.562 21.0133C14.6612 20.9115 14.6612 20.8097 14.7603 20.6062L14.9587 20.0973H16.4463L16.6446 20.6062C16.6446 20.708 16.7438 20.708 16.7438 20.8097C16.7438 20.9115 16.843 20.9115 16.843 21.0133L16.9421 21.115C16.9421 21.115 17.0413 21.115 17.1405 21.115C17.2397 21.115 17.3388 21.115 17.438 21.0133C17.3388 20.9115 17.3388 20.8097 17.3388 20.8097ZM15.0579 19.5885L15.5537 18.0619L16.1488 19.5885H15.0579Z" fill="#090954"/>
		<path d="M20.5124 20.5044C20.6116 20.3009 20.7107 20.0973 20.7107 19.8938C20.7107 19.6903 20.7107 19.5885 20.6116 19.385C20.5124 19.2832 20.4132 19.1814 20.314 19.0796C20.2149 18.9779 20.0165 18.8761 19.9174 18.8761C19.8182 18.8761 19.5207 18.7743 19.3223 18.6726C19.124 18.6726 19.0248 18.5708 18.9256 18.5708C18.8264 18.5708 18.8264 18.469 18.7273 18.469C18.6281 18.469 18.6281 18.3673 18.5289 18.3673C18.5289 18.2655 18.4298 18.2655 18.4298 18.1637C18.4298 18.0619 18.5289 17.9602 18.6281 17.8584C18.7273 17.7566 18.9256 17.7566 19.124 17.7566C19.3223 17.7566 19.5207 17.7566 19.6198 17.8584C19.719 17.9602 19.8182 18.0619 19.8182 18.1637C19.9174 18.2655 19.9174 18.3673 19.9174 18.3673C19.9174 18.3673 20.0165 18.469 20.1157 18.469C20.2149 18.469 20.314 18.469 20.314 18.3673C20.314 18.2655 20.4132 18.1637 20.4132 18.1637C20.4132 18.0619 20.4132 17.9602 20.314 17.8584C20.2149 17.7566 20.2149 17.6549 20.1157 17.5531C20.0165 17.4513 19.8182 17.3496 19.719 17.3496C19.6198 17.2478 19.4215 17.2478 19.2231 17.2478C18.9256 17.2478 18.7273 17.2478 18.5289 17.3496C18.3306 17.4513 18.1322 17.5531 18.0331 17.7566C17.9339 17.8584 17.8347 18.0619 17.8347 18.2655C17.8347 18.469 17.9339 18.6726 18.0331 18.7743C18.1322 18.8761 18.3306 19.0796 18.4298 19.0796C18.6281 19.2832 18.8264 19.2832 19.124 19.385C19.3223 19.385 19.5207 19.4867 19.6198 19.4867C19.719 19.4867 19.8182 19.5885 19.9174 19.6903C20.0165 19.792 20.0165 19.8938 20.0165 19.9956C20.0165 20.1991 19.9174 20.3009 19.8182 20.4027C19.719 20.5044 19.5207 20.6062 19.3223 20.6062C19.124 20.6062 19.0248 20.6062 18.9256 20.5044C18.8264 20.4027 18.6281 20.4027 18.6281 20.3009C18.6281 20.1991 18.5289 20.0973 18.4298 19.9956C18.4298 19.8938 18.3306 19.792 18.3306 19.792C18.2314 19.6903 18.2314 19.6903 18.1322 19.6903C18.0331 19.6903 17.9339 19.6903 17.9339 19.792C17.8347 19.8938 17.8347 19.8938 17.8347 19.9956C17.8347 20.1991 17.9339 20.3009 18.0331 20.5044C18.1322 20.708 18.2314 20.8097 18.4298 20.9115C18.6281 21.0133 18.9256 21.115 19.3223 21.115C19.6198 21.115 19.9174 21.0133 20.1157 20.9115C20.2149 20.9115 20.4132 20.708 20.5124 20.5044Z" fill="#090954"/>
		<path d="M24.0826 17.2478C23.9835 17.2478 23.8843 17.2478 23.7851 17.3496C23.6859 17.4513 23.686 17.5531 23.686 17.6549V18.7743H22.0992V17.6549C22.0992 17.4513 22.0992 17.3496 22 17.3496C21.9008 17.3496 21.8017 17.2478 21.7025 17.2478C21.6033 17.2478 21.5041 17.2478 21.405 17.3496C21.3058 17.4513 21.3058 17.5531 21.3058 17.6549V20.6062C21.3058 20.8097 21.3058 20.9115 21.405 20.9115C21.5041 20.9115 21.6033 21.0133 21.7025 21.0133C21.8017 21.0133 21.9008 21.0133 22 20.9115C22.0992 20.8097 22.0992 20.708 22.0992 20.6062V19.385H23.686V20.6062C23.686 20.8097 23.6859 20.9115 23.7851 20.9115C23.8843 20.9115 23.9835 21.0133 24.0826 21.0133C24.1818 21.0133 24.281 21.0133 24.3802 20.9115C24.4793 20.8097 24.4793 20.708 24.4793 20.6062V17.6549C24.4793 17.4513 24.4793 17.3496 24.3802 17.3496C24.281 17.2478 24.1818 17.2478 24.0826 17.2478Z" fill="#090954"/>
		<path d="M29.1405 17.4513C28.843 17.2478 28.5455 17.2478 28.1488 17.2478C27.8512 17.2478 27.6529 17.2478 27.3554 17.3496C27.157 17.4513 26.9587 17.5531 26.7603 17.7566C26.562 17.9602 26.4628 18.1637 26.3636 18.3673C26.2645 18.5708 26.2645 18.8761 26.2645 19.1814C26.2645 19.4867 26.2645 19.6903 26.3636 19.9956C26.4628 20.3009 26.562 20.5044 26.6612 20.6062C26.7603 20.708 26.9587 20.9115 27.2562 21.0133C27.5537 21.115 27.7521 21.115 28.0496 21.115C28.3471 21.115 28.6446 21.115 28.843 21.0133C29.0413 20.9115 29.2397 20.8097 29.438 20.6062C29.6364 20.4027 29.7355 20.1991 29.7355 19.9956C29.7355 19.792 29.8347 19.4867 29.8347 19.1814C29.8347 18.7743 29.7355 18.469 29.6364 18.1637C29.5372 17.8584 29.3388 17.6549 29.1405 17.4513ZM29.0413 19.8938C28.9421 20.0973 28.843 20.1991 28.6446 20.3009C28.4463 20.4027 28.3471 20.4027 28.1488 20.4027C28.0496 20.4027 27.8512 20.4027 27.7521 20.3009C27.6529 20.1991 27.5537 20.1991 27.4545 19.9956C27.3554 19.8938 27.2562 19.6903 27.2562 19.5885C27.157 19.385 27.157 19.1814 27.157 18.9779C27.157 18.7743 27.157 18.5708 27.2562 18.3673C27.3554 18.1637 27.3554 18.0619 27.4545 17.9602C27.5537 17.8584 27.6529 17.7566 27.7521 17.7566C27.8512 17.6549 28.0496 17.6549 28.1488 17.6549C28.3471 17.6549 28.5455 17.7566 28.7438 17.8584C28.9421 17.9602 29.0413 18.1637 29.1405 18.3673C29.2397 18.5708 29.2397 18.7743 29.2397 19.0796C29.1405 19.4867 29.1405 19.6903 29.0413 19.8938Z" fill="#090954"/>
		<path d="M31.3223 20.708V18.469L32.7107 20.708C32.7107 20.8097 32.8099 20.8097 32.8099 20.9115C32.8099 21.0133 32.9091 21.0133 32.9091 21.0133C32.9091 21.0133 33.0083 21.115 33.1074 21.115C33.2066 21.115 33.2066 21.115 33.3058 21.115C33.6033 21.115 33.7025 20.9115 33.7025 20.6062V17.6549C33.7025 17.5531 33.7025 17.3496 33.6033 17.3496C33.5041 17.2478 33.405 17.2478 33.3058 17.2478C33.2066 17.2478 33.1074 17.2478 33.0083 17.3496C32.9091 17.4513 32.9091 17.5531 32.9091 17.6549V19.8938L31.5207 17.6549C31.5207 17.5531 31.4215 17.5531 31.4215 17.4513C31.4215 17.3496 31.3223 17.3496 31.3223 17.3496L31.2231 17.2478C31.124 17.2478 31.124 17.2478 31.0248 17.2478C30.9256 17.2478 30.8264 17.2478 30.8264 17.3496C30.7273 17.3496 30.7273 17.4513 30.6281 17.5531C30.5289 17.6549 30.6281 17.7566 30.6281 17.8584V20.8097C30.6281 20.9115 30.6281 21.0133 30.7273 21.115C30.8264 21.2168 30.8264 21.2168 31.0248 21.2168C31.2231 21.2168 31.2231 21.2168 31.3223 21.115C31.2231 20.9115 31.3223 20.8097 31.3223 20.708Z" fill="#090954"/>
		<path d="M12.281 22.2345C12.0826 22.1327 11.8843 22.1327 11.686 22.1327H10.7934C10.6942 22.1327 10.4959 22.1327 10.4959 22.2345C10.3967 22.3363 10.3967 22.4381 10.3967 22.5398V25.0841C10.3967 25.1858 10.3967 25.2876 10.3967 25.3894C10.3967 25.4911 10.4959 25.4912 10.4959 25.5929C10.595 25.5929 10.6942 25.6947 10.7934 25.6947H11.686C11.8843 25.6947 11.9835 25.6947 12.0826 25.6947C12.1818 25.6947 12.281 25.5929 12.4793 25.5929C12.5785 25.4912 12.6777 25.4911 12.7769 25.3894C12.876 25.2876 12.9752 25.1858 13.0744 24.9823C13.1736 24.8805 13.1736 24.677 13.2727 24.4735C13.2727 24.2699 13.3719 24.0664 13.3719 23.8628C13.3719 23.2522 13.1736 22.7434 12.876 22.4381C12.6777 22.4381 12.4793 22.3363 12.281 22.2345ZM12.281 24.9823C12.1818 24.9823 12.1818 25.0841 12.0826 25.0841C11.9835 25.0841 11.9835 25.0841 11.8843 25.0841C11.7851 25.0841 11.686 25.0841 11.5868 25.0841H11.0909V22.7434H11.5868C11.7851 22.7434 11.9835 22.7434 12.0826 22.8451C12.1818 22.8451 12.3802 23.0487 12.4793 23.1504C12.5785 23.354 12.6777 23.5575 12.6777 23.9646C12.5785 24.4735 12.4793 24.7788 12.281 24.9823Z" fill="#090954"/>
		<path d="M16.2479 25.1858H14.562V24.1681H15.9504C16.0496 24.1681 16.1488 24.1681 16.1488 24.0664C16.2479 23.9646 16.2479 23.9646 16.2479 23.8628C16.2479 23.7611 16.2479 23.7611 16.1488 23.6593C16.0496 23.5575 16.0496 23.5575 15.9504 23.5575H14.562V22.7434H16.1488C16.2479 22.7434 16.3471 22.7434 16.4463 22.6416C16.5455 22.5398 16.5455 22.5398 16.5455 22.4381C16.5455 22.3363 16.5455 22.3363 16.4463 22.2345C16.3471 22.2345 16.3471 22.1327 16.1488 22.1327H14.3636C14.2645 22.1327 14.1653 22.1327 14.1653 22.1327C14.0661 22.2345 13.9669 22.3363 13.9669 22.4381C13.9669 22.5398 13.9669 22.5398 13.9669 22.6416V25.2876C13.9669 25.3894 13.9669 25.5929 14.0661 25.5929C14.1653 25.6947 14.2645 25.6947 14.3636 25.6947H16.2479C16.3471 25.6947 16.4463 25.6947 16.5455 25.5929C16.6446 25.4912 16.6446 25.4911 16.6446 25.3894C16.6446 25.2876 16.6446 25.1858 16.5455 25.1858C16.4463 25.1858 16.3471 25.1858 16.2479 25.1858Z" fill="#090954"/>
		<path d="M19.2231 25.1858H17.7355V22.6416C17.7355 22.5398 17.7355 22.3363 17.6364 22.3363C17.5372 22.2345 17.5372 22.2345 17.3388 22.2345C17.1405 22.2345 17.1405 22.2345 17.0413 22.3363C16.9421 22.4381 16.9421 22.5398 16.9421 22.6416V25.3894C16.9421 25.4911 16.9421 25.6947 17.0413 25.6947C17.1405 25.6947 17.2397 25.7965 17.3388 25.7965H19.0248C19.124 25.7965 19.2231 25.7965 19.3223 25.6947C19.4215 25.5929 19.4215 25.5929 19.4215 25.4912C19.4215 25.3894 19.4215 25.2876 19.3223 25.2876C19.4215 25.1858 19.3223 25.1858 19.2231 25.1858Z" fill="#090954"/>
		<path d="M20.314 22.1327C20.2149 22.1327 20.1157 22.1327 20.0165 22.2345C19.9174 22.3363 19.9174 22.4381 19.9174 22.5398V25.3894C19.9174 25.4911 19.9174 25.6947 20.0165 25.6947C20.1157 25.7965 20.1157 25.7965 20.314 25.7965C20.5124 25.7965 20.5124 25.7965 20.6116 25.6947C20.7107 25.5929 20.7107 25.4911 20.7107 25.3894V22.6416C20.7107 22.5398 20.7107 22.3363 20.6116 22.3363C20.5124 22.2345 20.4132 22.1327 20.314 22.1327Z" fill="#090954"/>
		<path d="M24.0826 22.2345C23.9835 22.2345 23.9835 22.2345 23.8843 22.2345C23.7851 22.2345 23.7851 22.2345 23.686 22.3363L23.5868 22.4381C23.5868 22.5398 23.4876 22.5398 23.4876 22.7434L22.6942 25.0841L21.9008 22.7434C21.9008 22.4381 21.9008 22.3363 21.8017 22.2345C21.7025 22.1327 21.7025 22.1327 21.5041 22.1327C21.405 22.1327 21.3058 22.1327 21.3058 22.2345C21.2066 22.3363 21.2066 22.3363 21.2066 22.4381V22.7434L22 24.9823C22 25.0841 22.0992 25.1858 22.0992 25.1858C22.0992 25.2876 22.1983 25.2876 22.1983 25.3894C22.1983 25.4911 22.2975 25.4912 22.3967 25.4912C22.4959 25.4912 22.4959 25.5929 22.595 25.5929C22.6942 25.5929 22.7934 25.5929 22.7934 25.4912C22.8926 25.4912 22.8926 25.3894 22.9917 25.3894C22.9917 25.2876 23.0909 25.2876 23.0909 25.1858C23.0909 25.0841 23.1901 24.9823 23.1901 24.9823L23.9835 22.6416V22.3363C23.9835 22.2345 23.9835 22.2345 23.9835 22.2345C24.1818 22.2345 24.1818 22.2345 24.0826 22.2345Z" fill="#090954"/>
		<path d="M27.0579 25.1858H25.4711V24.1681H26.8595C26.9587 24.1681 27.0579 24.1681 27.0579 24.0664C27.157 23.9646 27.157 23.9646 27.157 23.8628C27.157 23.7611 27.157 23.7611 27.0579 23.6593C26.9587 23.5575 26.9587 23.5575 26.8595 23.5575H25.4711V22.7434H27.0579C27.157 22.7434 27.2562 22.7434 27.3554 22.6416C27.4545 22.5398 27.4545 22.5398 27.4545 22.4381C27.4545 22.3363 27.4545 22.3363 27.3554 22.2345C27.2562 22.2345 27.2562 22.1327 27.0579 22.1327H25.2727C25.1736 22.1327 25.0744 22.1327 25.0744 22.1327C24.9752 22.1327 24.9752 22.2345 24.9752 22.2345C24.9752 22.3363 24.9752 22.3363 24.9752 22.4381V25.0841C24.9752 25.1858 24.9752 25.3894 25.0744 25.3894C25.1736 25.3894 25.2727 25.4912 25.3719 25.4912H27.2562C27.3554 25.4912 27.4545 25.4911 27.5537 25.3894C27.6529 25.2876 27.6529 25.2876 27.6529 25.1858C27.6529 25.0841 27.6529 24.9823 27.5537 24.9823C27.2562 25.1858 27.157 25.1858 27.0579 25.1858Z" fill="#090954"/>
		<path d="M30.5289 24.8805C30.4298 24.7788 30.3306 24.5752 30.2314 24.4735C30.1322 24.3717 30.0331 24.2699 29.8347 24.1681C30.1322 24.0664 30.3306 23.9646 30.5289 23.8628C30.7273 23.7611 30.7273 23.4558 30.7273 23.2522C30.7273 23.1504 30.7273 23.0487 30.6281 22.8451C30.6281 22.7434 30.5289 22.6416 30.4298 22.5398C30.3306 22.4381 30.2314 22.4381 30.1322 22.3363C30.0331 22.3363 29.9339 22.2345 29.8347 22.2345C29.7355 22.2345 29.6364 22.2345 29.438 22.2345H28.3471C28.2479 22.2345 28.0496 22.2345 28.0496 22.3363C27.9504 22.4381 27.9504 22.5398 27.9504 22.6416V25.3894C27.9504 25.4911 27.9504 25.5929 28.0496 25.6947C28.1488 25.7965 28.1488 25.7965 28.3471 25.7965C28.4463 25.7965 28.5455 25.7965 28.6446 25.6947C28.7438 25.5929 28.7438 25.4911 28.7438 25.3894V24.2699H28.843C28.9421 24.2699 29.0413 24.2699 29.1405 24.3717C29.2397 24.3717 29.3388 24.4735 29.3388 24.5752C29.3388 24.677 29.5372 24.7788 29.6364 24.9823L29.9339 25.4912C30.0331 25.5929 30.0331 25.6947 30.1322 25.7965C30.2314 25.8982 30.2314 25.8982 30.2314 25.8982C30.3306 25.8982 30.3306 26 30.4298 26C30.5289 26 30.5289 26 30.6281 26C30.7273 26 30.7273 25.8982 30.7273 25.8982V25.7965C30.7273 25.7965 30.7273 25.6947 30.6281 25.5929C30.6281 25.0841 30.6281 24.9823 30.5289 24.8805ZM29.7355 23.6593C29.6364 23.6593 29.438 23.6593 29.3388 23.6593H28.7438V22.6416H29.3388C29.5372 22.6416 29.7355 22.6416 29.8347 22.7434C29.9339 22.7434 30.0331 22.8451 30.0331 22.9469C30.1322 23.0487 30.1322 23.1504 30.1322 23.2522C30.1322 23.354 30.1322 23.4558 30.0331 23.5575C29.9339 23.5575 29.8347 23.6593 29.7355 23.6593Z" fill="#090954"/>
		<path d="M33.6033 22.2345C33.5041 22.1327 33.5041 22.1327 33.405 22.1327C33.3058 22.1327 33.3058 22.1327 33.3058 22.1327L33.1074 22.3363C33.1074 22.3363 33.0083 22.4381 33.0083 22.5398L32.4132 23.5575L31.8182 22.5398C31.719 22.3363 31.6198 22.2345 31.6198 22.2345C31.5207 22.1327 31.5207 22.1327 31.4215 22.1327C31.3223 22.1327 31.2231 22.1327 31.2231 22.2345C31.124 22.3363 31.124 22.3363 31.124 22.4381C31.124 22.5398 31.124 22.5398 31.124 22.6416C31.124 22.7434 31.2231 22.8451 31.3223 22.9469L32.1157 24.2699V25.3894C32.1157 25.4911 32.1157 25.6947 32.2149 25.6947C32.314 25.6947 32.3141 25.7965 32.5124 25.7965C32.6116 25.7965 32.7107 25.7965 32.8099 25.6947C32.9091 25.5929 32.9091 25.4911 32.9091 25.3894V24.2699L33.8017 22.9469C33.9008 22.8451 33.9008 22.7434 34 22.6416C34 22.5398 34 22.5398 34 22.4381C33.7025 22.3363 33.7025 22.3363 33.6033 22.2345Z" fill="#090954"/>
		<path d="M13.2727 14.2965L19.0248 15.2124C19.2231 15.2124 19.5207 15.2124 19.9174 15.2124C20.6116 15.2124 22.0992 15.1106 22.6942 14.6018L26.3636 12.2611C26.562 12.1593 26.6612 11.9558 26.562 11.7522C26.4628 11.5487 26.3636 11.4469 26.1653 11.4469H23.3884L21.3058 11.6504C20.4132 11.6504 19.8182 11.1416 19.6198 10.531H29.8347C30.0331 10.531 30.2314 10.3274 30.2314 10.1239V3.40708C30.2314 3.20354 30.0331 3 29.8347 3H18.3306C18.1322 3 17.9339 3.20354 17.9339 3.40708V6.35841L16.6446 7.68142C15.8512 7.68142 15.0579 8.0885 14.4628 8.69911C13.6694 7.88496 11.0909 7.68142 10.4959 7.68142C10.3967 7.68142 10.1983 7.68142 10.1983 7.78319C10.0992 7.88496 10 7.98673 10 8.0885V14.7035C10 15.0089 10.1983 15.2124 10.4959 15.2124C11.4876 15.2124 12.876 14.5 13.2727 14.2965ZM18.7273 3.81416H29.438V9.71681H19.719C19.719 9.51327 19.8182 9.4115 19.9174 9.30973L21.405 7.27434L21.5041 7.17257H21.6033C21.8017 7.17257 22 6.96903 22 6.76549C22 6.56195 21.9008 6.46018 21.7025 6.35841C21.7025 5.95133 21.5041 5.54425 21.2066 5.34071C20.6116 4.73009 19.6198 4.73009 19.0248 5.34071L18.7273 5.54425V3.81416ZM14.1653 11.9558L14.6612 9.92035C15.0579 9.10619 15.9504 8.59735 16.843 8.59735C16.9421 8.59735 17.0413 8.49558 17.1405 8.49558L19.6198 5.95133C19.8182 5.74779 20.2149 5.74779 20.5124 5.95133C20.7107 6.15487 20.7107 6.46018 20.6116 6.76549L19.2231 8.80088C18.8264 9.20796 18.7273 9.71681 18.7273 10.2257C18.7273 11.5487 19.719 12.5664 21.0083 12.5664C21.1074 12.5664 21.2066 12.5664 21.3058 12.5664L23.2893 12.3628H24.4793L22.1983 13.7876C22.1983 13.7876 22.0992 13.7876 22.0992 13.8894C21.9008 14.0929 20.9091 14.2965 19.9174 14.2965C19.5207 14.2965 19.3223 14.2965 19.2231 14.1947L13.7686 13.3805C13.8678 13.0752 14.0661 12.5664 14.1653 11.9558ZM10.8926 8.69911C11.8843 8.80088 13.0744 9.00442 13.6694 9.30973C13.5702 10.2257 13.3719 11.0398 13.2727 11.854L12.876 13.4823C12.4793 13.6858 11.686 14.0929 10.9917 14.1947V8.69911H10.8926Z" fill="#090954"/>
		<path d="M26.6612 7.17257H27.6529C27.8512 7.17257 28.0496 6.96903 28.0496 6.76549C28.0496 6.56195 27.8512 6.35841 27.6529 6.35841H26.6612C26.4628 6.35841 26.2645 6.56195 26.2645 6.76549C26.2645 6.96903 26.4628 7.17257 26.6612 7.17257Z" fill="#090954"/>
		<path d="M23.7851 7.17257H24.3802C24.5785 7.17257 24.6777 7.27434 24.6777 7.47788C24.6777 7.68142 24.5785 7.78319 24.3802 7.78319H23.2893C23.0909 7.68142 22.8926 7.88496 22.8926 8.0885C22.8926 8.29204 23.0909 8.49558 23.2893 8.49558H23.686V8.80088C23.686 9.00442 23.8843 9.20796 24.0826 9.20796C24.281 9.20796 24.4793 9.00442 24.4793 8.80088V8.49558C24.9752 8.49558 25.4711 7.98673 25.4711 7.37611C25.4711 6.76549 24.9752 6.25664 24.3802 6.25664H23.7851C23.5868 6.25664 23.4876 6.15487 23.4876 5.95133C23.4876 5.74779 23.5868 5.64602 23.7851 5.64602H24.876C25.0744 5.64602 25.2727 5.44248 25.2727 5.23894C25.2727 5.0354 25.0744 5.0354 24.876 5.0354H24.4793V4.73009C24.4793 4.52655 24.281 4.32301 24.0826 4.32301C23.8843 4.32301 23.686 4.52655 23.686 4.73009V5.0354C23.1901 5.0354 22.6942 5.54425 22.6942 6.15487C22.6942 6.66372 23.1901 7.17257 23.7851 7.17257Z" fill="#090954"/>
	</symbol>
</svg>